rotated_Sprint_06300001_forces_filt50Hz.mot
version=1
nRows=48
nColumns=19
inDegrees=yes
endheader
time	R_ground_force_vx	R_ground_force_vy	R_ground_force_vz	R_ground_force_px	R_ground_force_py	R_ground_force_pz	R_ground_torque_x	R_ground_torque_y	R_ground_torque_z	L_ground_force_vx	L_ground_force_vy	L_ground_force_vz	L_ground_force_px	L_ground_force_py	L_ground_force_pz	L_ground_torque_x	L_ground_torque_y	L_ground_torque_z	
0.897000	  0.000000	  0.000000	  0.000000	  1.102136	  0.000000	 -0.178240	  0.000000	  0.000000	  0.000000	  0.000000	  0.000000	  0.000000	  0.211742	  0.000000	 -0.183054	  0.000000	  0.000000	  0.000000
0.897500	  0.000000	  0.000000	  0.000000	  1.104281	  0.000000	 -0.177317	  0.000000	  0.000000	  0.000000	  0.000000	  0.000000	  0.000000	  0.210281	  0.000000	 -0.185159	  0.000000	  0.000000	  0.000000
0.898000	  0.000000	  0.000000	  0.000000	  1.106427	  0.000000	 -0.176394	  0.000000	  0.000000	  0.000000	  0.000000	  0.000000	  0.000000	  0.208819	  0.000000	 -0.187265	  0.000000	  0.000000	  0.000000
0.898500	  0.000000	  0.000000	  0.000000	  1.108572	  0.000000	 -0.175470	  0.000000	  0.000000	  0.000000	  0.000000	  0.000000	  0.000000	  0.207357	  0.000000	 -0.189371	  0.000000	  0.000000	  0.000000
0.899000	  0.000000	  0.000000	  0.000000	  1.110718	  0.000000	 -0.174547	  0.000000	  0.000000	  0.000000	  0.000000	  0.000000	  0.000000	  0.205895	  0.000000	 -0.191477	  0.000000	  0.000000	  0.000000
0.899500	  0.000000	  0.000000	  0.000000	  1.112863	  0.000000	 -0.173623	  0.000000	  0.000000	  0.000000	  0.000000	  0.000000	  0.000000	  0.204434	  0.000000	 -0.193582	  0.000000	  0.000000	  0.000000
0.900000	  0.000000	  0.000000	  0.000000	  1.115009	  0.000000	 -0.172700	  0.000000	  0.000000	  0.000000	  0.000000	  0.000000	  0.000000	  0.202972	  0.000000	 -0.195688	  0.000000	  0.000000	  0.000000
0.900500	  0.000000	  0.000000	  0.000000	  1.116941	  0.000000	 -0.172000	  0.000000	  0.000000	  0.000000	  0.000000	  0.000000	  0.000000	  0.201687	  0.000000	 -0.197862	  0.000000	  0.000000	  0.000000
0.901000	  0.000000	  0.000000	  0.000000	  1.118872	  0.000000	 -0.171300	  0.000000	  0.000000	  0.000000	  0.000000	  0.000000	  0.000000	  0.200403	  0.000000	 -0.200036	  0.000000	  0.000000	  0.000000
0.901500	  0.000000	  0.000000	  0.000000	  1.120804	  0.000000	 -0.170600	  0.000000	  0.000000	  0.000000	  0.000000	  0.000000	  0.000000	  0.199118	  0.000000	 -0.202210	  0.000000	  0.000000	  0.000000
0.902000	  0.000000	  0.000000	  0.000000	  1.122735	  0.000000	 -0.169900	  0.000000	  0.000000	  0.000000	  0.000000	  0.000000	  0.000000	  0.197834	  0.000000	 -0.204384	  0.000000	  0.000000	  0.000000
0.902500	  0.000000	  0.000000	  0.000000	  1.124667	  0.000000	 -0.169200	  0.000000	  0.000000	  0.000000	  0.000000	  0.000000	  0.000000	  0.196549	  0.000000	 -0.206558	  0.000000	  0.000000	  0.000000
0.903000	  0.000000	  0.000000	  0.000000	  1.126599	  0.000000	 -0.168499	  0.000000	  0.000000	  0.000000	  0.000000	  0.000000	  0.000000	  0.195264	  0.000000	 -0.208733	  0.000000	  0.000000	  0.000000
0.903500	  0.000000	  0.000000	  0.000000	  1.128530	  0.000000	 -0.167799	  0.000000	  0.000000	  0.000000	  0.000000	  0.000000	  0.000000	  0.193980	  0.000000	 -0.210907	  0.000000	  0.000000	  0.000000
0.904000	  0.000000	  0.000000	  0.000000	  1.130462	  0.000000	 -0.167099	  0.000000	  0.000000	  0.000000	  0.000000	  0.000000	  0.000000	  0.192695	  0.000000	 -0.213081	  0.000000	  0.000000	  0.000000
0.904500	  0.000000	  0.000000	  0.000000	  1.132393	  0.000000	 -0.166399	  0.000000	  0.000000	  0.000000	  0.000000	  0.000000	  0.000000	  0.191411	  0.000000	 -0.215255	  0.000000	  0.000000	  0.000000
0.905000	  0.000000	  0.000000	  0.000000	  1.134325	  0.000000	 -0.165699	  0.000000	  0.000000	  0.000000	  0.000000	  0.000000	  0.000000	  0.190126	  0.000000	 -0.217429	  0.000000	  0.000000	  0.000000
0.905500	  0.000000	  0.000000	  0.000000	  1.135992	  0.000000	 -0.165158	  0.000000	  0.000000	  0.000000	  0.000000	  0.000000	  0.000000	  0.188638	  0.000000	 -0.219594	  0.000000	  0.000000	  0.000000
0.906000	  0.000000	  0.000000	  0.000000	  1.137659	  0.000000	 -0.164617	  0.000000	  0.000000	  0.000000	  0.000000	  0.000000	  0.000000	  0.187150	  0.000000	 -0.221760	  0.000000	  0.000000	  0.000000
0.906500	  0.000000	  0.000000	  0.000000	  1.139326	  0.000000	 -0.164077	  0.000000	  0.000000	  0.000000	  0.000000	  0.000000	  0.000000	  0.185662	  0.000000	 -0.223925	  0.000000	  0.000000	  0.000000
0.907000	  0.000000	  0.000000	  0.000000	  1.140993	  0.000000	 -0.163536	  0.000000	  0.000000	  0.000000	  0.000000	  0.000000	  0.000000	  0.184174	  0.000000	 -0.226090	  0.000000	  0.000000	  0.000000
0.907500	  0.000000	  0.000000	  0.000000	  1.142660	  0.000000	 -0.162995	  0.000000	  0.000000	  0.000000	  0.000000	  0.000000	  0.000000	  0.182686	  0.000000	 -0.228255	  0.000000	  0.000000	  0.000000
0.908000	  0.000000	  0.000000	  0.000000	  1.144327	  0.000000	 -0.162454	  0.000000	  0.000000	  0.000000	  0.000000	  0.000000	  0.000000	  0.181198	  0.000000	 -0.230421	  0.000000	  0.000000	  0.000000
0.908500	  0.000000	  0.000000	  0.000000	  1.145994	  0.000000	 -0.161913	  0.000000	  0.000000	  0.000000	  0.000000	  0.000000	  0.000000	  0.179710	  0.000000	 -0.232586	  0.000000	  0.000000	  0.000000
0.909000	  0.000000	  0.000000	  0.000000	  1.147661	  0.000000	 -0.161373	  0.000000	  0.000000	  0.000000	  0.000000	  0.000000	  0.000000	  0.178222	  0.000000	 -0.234751	  0.000000	  0.000000	  0.000000
0.909500	  0.000000	  0.000000	  0.000000	  1.149328	  0.000000	 -0.160832	  0.000000	  0.000000	  0.000000	  0.000000	  0.000000	  0.000000	  0.176734	  0.000000	 -0.236917	  0.000000	  0.000000	  0.000000
0.910000	  0.000000	  0.000000	  0.000000	  1.150995	  0.000000	 -0.160291	  0.000000	  0.000000	  0.000000	  0.000000	  0.000000	  0.000000	  0.175246	  0.000000	 -0.239082	  0.000000	  0.000000	  0.000000
0.910500	  0.000000	  0.000000	  0.000000	  1.152375	  0.000000	 -0.159886	  0.000000	  0.000000	  0.000000	  0.000000	  0.000000	  0.000000	  0.174152	  0.000000	 -0.241333	  0.000000	  0.000000	  0.000000
0.911000	  0.000000	  0.000000	  0.000000	  1.153755	  0.000000	 -0.159480	  0.000000	  0.000000	  0.000000	  0.000000	  0.000000	  0.000000	  0.173057	  0.000000	 -0.243584	  0.000000	  0.000000	  0.000000
0.911500	  0.000000	  0.000000	  0.000000	  1.155135	  0.000000	 -0.159075	  0.000000	  0.000000	  0.000000	  0.000000	  0.000000	  0.000000	  0.171963	  0.000000	 -0.245835	  0.000000	  0.000000	  0.000000
0.912000	  0.000000	  0.000000	  0.000000	  1.156515	  0.000000	 -0.158669	  0.000000	  0.000000	  0.000000	  0.000000	  0.000000	  0.000000	  0.170869	  0.000000	 -0.248086	  0.000000	  0.000000	  0.000000
0.912500	  0.000000	  0.000000	  0.000000	  1.157894	  0.000000	 -0.158264	  0.000000	  0.000000	  0.000000	  0.000000	  0.000000	  0.000000	  0.169775	  0.000000	 -0.250337	  0.000000	  0.000000	  0.000000
0.913000	  0.000000	  0.000000	  0.000000	  1.159274	  0.000000	 -0.157858	  0.000000	  0.000000	  0.000000	  0.000000	  0.000000	  0.000000	  0.168680	  0.000000	 -0.252589	  0.000000	  0.000000	  0.000000
0.913500	  0.000000	  0.000000	  0.000000	  1.160654	  0.000000	 -0.157453	  0.000000	  0.000000	  0.000000	  0.000000	  0.000000	  0.000000	  0.167586	  0.000000	 -0.254840	  0.000000	  0.000000	  0.000000
0.914000	  0.000000	  0.000000	  0.000000	  1.162034	  0.000000	 -0.157047	  0.000000	  0.000000	  0.000000	  0.000000	  0.000000	  0.000000	  0.166492	  0.000000	 -0.257091	  0.000000	  0.000000	  0.000000
0.914500	  0.000000	  0.000000	  0.000000	  1.163414	  0.000000	 -0.156642	  0.000000	  0.000000	  0.000000	  0.000000	  0.000000	  0.000000	  0.165397	  0.000000	 -0.259342	  0.000000	  0.000000	  0.000000
0.915000	  0.000000	  0.000000	  0.000000	  1.164794	  0.000000	 -0.156236	  0.000000	  0.000000	  0.000000	  0.000000	  0.000000	  0.000000	  0.164303	  0.000000	 -0.261593	  0.000000	  0.000000	  0.000000
0.915500	  0.000000	  0.000000	  0.000000	  1.165877	  0.000000	 -0.155910	  0.000000	  0.000000	  0.000000	  0.000000	  0.000000	  0.000000	  0.163592	  0.000000	 -0.263876	  0.000000	  0.000000	  0.000000
0.916000	  0.000000	  0.000000	  0.000000	  1.166961	  0.000000	 -0.155584	  0.000000	  0.000000	  0.000000	  0.000000	  0.000000	  0.000000	  0.162881	  0.000000	 -0.266159	  0.000000	  0.000000	  0.000000
0.916500	  0.000000	  0.000000	  0.000000	  1.168044	  0.000000	 -0.155258	  0.000000	  0.000000	  0.000000	  0.000000	  0.000000	  0.000000	  0.162171	  0.000000	 -0.268441	  0.000000	  0.000000	  0.000000
0.917000	  0.000000	  0.000000	  0.000000	  1.169128	  0.000000	 -0.154932	  0.000000	  0.000000	  0.000000	  0.000000	  0.000000	  0.000000	  0.161460	  0.000000	 -0.270724	  0.000000	  0.000000	  0.000000
0.917500	  0.000000	  0.000000	  0.000000	  1.170211	  0.000000	 -0.154607	  0.000000	  0.000000	  0.000000	  0.000000	  0.000000	  0.000000	  0.160749	  0.000000	 -0.273007	  0.000000	  0.000000	  0.000000
0.918000	  0.000000	  0.000000	  0.000000	  1.171294	  0.000000	 -0.154281	  0.000000	  0.000000	  0.000000	  0.000000	  0.000000	  0.000000	  0.160038	  0.000000	 -0.275290	  0.000000	  0.000000	  0.000000
0.918500	  0.000000	  0.000000	  0.000000	  1.172378	  0.000000	 -0.153955	  0.000000	  0.000000	  0.000000	  0.000000	  0.000000	  0.000000	  0.159327	  0.000000	 -0.277573	  0.000000	  0.000000	  0.000000
0.919000	  0.000000	  0.000000	  0.000000	  1.173461	  0.000000	 -0.153629	  0.000000	  0.000000	  0.000000	  0.000000	  0.000000	  0.000000	  0.158617	  0.000000	 -0.279855	  0.000000	  0.000000	  0.000000
0.919500	  0.000000	  0.000000	  0.000000	  1.174545	  0.000000	 -0.153303	  0.000000	  0.000000	  0.000000	  0.000000	  0.000000	  0.000000	  0.157906	  0.000000	 -0.282138	  0.000000	  0.000000	  0.000000
0.920000	  0.000000	  0.000000	  0.000000	  1.175628	  0.000000	 -0.152977	  0.000000	  0.000000	  0.000000	  0.000000	  0.000000	  0.000000	  0.157195	  0.000000	 -0.284421	  0.000000	  0.000000	  0.000000
0.920500	  0.000000	  0.000000	  0.000000	  1.176367	  0.000000	 -0.152685	  0.000000	  0.000000	  0.000000	  0.000000	  0.000000	  0.000000	  0.156649	  0.000000	 -0.286641	  0.000000	  0.000000	  0.000000
